<svg xmlns="http://www.w3.org/2000/svg" viewBox="0 0 1920 1080" width="1920" height="1080" font-family="'Space Grotesk','Helvetica Neue',Arial,sans-serif">
  <defs>
    <!-- Brand gradient: brown → red → violet (as in current slides, boosted) -->
    <linearGradient id="brandGrad" x1="0" y1="0" x2="1" y2="0">
      <stop offset="0%"  stop-color="#3a1f1a"/>
      <stop offset="18%" stop-color="#7a2433"/>
      <stop offset="42%" stop-color="#c62a3d"/>
      <stop offset="68%" stop-color="#8a2ad4"/>
      <stop offset="100%" stop-color="#4f16b8"/>
    </linearGradient>

    <linearGradient id="brandGradSoft" x1="0" y1="0" x2="1" y2="0">
      <stop offset="0%"  stop-color="#5a2a25" stop-opacity="0.85"/>
      <stop offset="50%" stop-color="#b03049" stop-opacity="0.85"/>
      <stop offset="100%" stop-color="#6a24c9" stop-opacity="0.85"/>
    </linearGradient>

    <!-- Pyramid glow -->
    <linearGradient id="pyramidGlow" x1="0.5" y1="0" x2="0.5" y2="1">
      <stop offset="0%"  stop-color="#a78bfa" stop-opacity="0.55"/>
      <stop offset="60%" stop-color="#7c3aed" stop-opacity="0.22"/>
      <stop offset="100%" stop-color="#7c3aed" stop-opacity="0"/>
    </linearGradient>

    <radialGradient id="adessoGlow" cx="0.5" cy="0.5" r="0.5">
      <stop offset="0%"  stop-color="#a78bfa"/>
      <stop offset="70%" stop-color="#7c3aed"/>
      <stop offset="100%" stop-color="#4f16b8"/>
    </radialGradient>

    <!-- Paper background -->
    <linearGradient id="paperGrad" x1="0" y1="0" x2="0" y2="1">
      <stop offset="0%"  stop-color="#f5f3ee"/>
      <stop offset="100%" stop-color="#e9e6df"/>
    </linearGradient>

    <filter id="grain" x="0" y="0" width="100%" height="100%">
      <feTurbulence type="fractalNoise" baseFrequency="0.9" numOctaves="2" seed="5"/>
      <feColorMatrix values="0 0 0 0 0
                             0 0 0 0 0
                             0 0 0 0 0
                             0 0 0 0.06 0"/>
      <feComposite in2="SourceGraphic" operator="in"/>
    </filter>

    <filter id="softShadow" x="-10%" y="-10%" width="120%" height="120%">
      <feGaussianBlur in="SourceAlpha" stdDeviation="6"/>
      <feOffset dx="0" dy="8" result="off"/>
      <feComponentTransfer><feFuncA type="linear" slope="0.22"/></feComponentTransfer>
      <feMerge><feMergeNode/><feMergeNode in="SourceGraphic"/></feMerge>
    </filter>

    <!-- Silhouette body -->
    <symbol id="figure" viewBox="0 0 100 260">
      <path fill="#1a1a22" d="M50 0c-9 0-16 7-16 16s7 16 16 16 16-7 16-16S59 0 50 0zm-22 40c-5 3-8 9-8 16v70c0 4 3 7 7 7h2v110c0 5 4 9 9 9s9-4 9-9v-65h6v65c0 5 4 9 9 9s9-4 9-9V133h2c4 0 7-3 7-7V56c0-7-3-13-8-16-8 3-16 5-22 5s-14-2-22-5z"/>
    </symbol>
  </defs>

  <!-- Background -->
  <rect width="1920" height="1080" fill="url(#paperGrad)"/>
  <rect width="1920" height="1080" fill="white" filter="url(#grain)" opacity="0.55"/>

  <!-- Subtle corner vignettes in brand colours -->
  <circle cx="-80" cy="-80" r="360" fill="#c62a3d" opacity="0.05"/>
  <circle cx="2000" cy="1160" r="420" fill="#7c3aed" opacity="0.06"/>

  <!-- ============ HEADER ============ -->
  <g text-anchor="middle">
    <text x="960" y="130" font-size="90" font-weight="700" letter-spacing="-2" fill="url(#brandGrad)" font-style="italic">VIVERE NEL</text>
    <text x="960" y="230" font-size="140" font-weight="700" letter-spacing="-4" fill="url(#brandGrad)" font-style="italic">PROGRAMMA</text>
    <text x="960" y="280" font-size="40" font-weight="500" letter-spacing="4" fill="#3a3f58">UNA SUCCESSIONE PREVEDIBILE DI EFFETTI</text>
    <text x="960" y="318" font-size="20" font-weight="400" fill="#6b6e7c" font-style="italic">
      "Rendi conscio il tuo inconscio o sarà la tua mente a comandare la tua vita e tu lo chiamerai destino." — Carl Gustav Jung
    </text>
  </g>

  <!-- ============ CENTRAL INFOGRAPHIC ============ -->
  <g transform="translate(960,640)">
    <!-- Pyramid glow -->
    <path d="M -360 120 L 0 -300 L 360 120 Z" fill="url(#pyramidGlow)" opacity="0.9"/>
    <!-- Pyramid outline -->
    <path d="M -360 120 L 0 -300 L 360 120 Z"
          fill="none" stroke="url(#brandGradSoft)" stroke-width="3" stroke-linejoin="round"/>

    <!-- Left side label: IERI -->
    <g transform="translate(-245,-90)" text-anchor="middle">
      <text y="0" font-size="44" font-weight="700" font-style="italic" fill="url(#brandGrad)">Ieri</text>
      <text y="30" font-size="18" font-weight="400" fill="#3a3f58">Programma</text>
      <text y="52" font-size="18" font-weight="400" fill="#3a3f58">Automatico</text>
    </g>
    <!-- Right side label: DOMANI -->
    <g transform="translate(245,-90)" text-anchor="middle">
      <text y="0" font-size="44" font-weight="700" font-style="italic" fill="url(#brandGrad)">Domani</text>
      <text y="30" font-size="18" font-weight="400" fill="#3a3f58">Programma</text>
      <text y="52" font-size="18" font-weight="400" fill="#3a3f58">Automatico</text>
    </g>

    <!-- Human silhouette -->
    <use href="#figure" x="-38" y="-200" width="76" height="280" filter="url(#softShadow)"/>

    <!-- Timeline bar -->
    <g transform="translate(0,125)">
      <!-- Arrows left/right -->
      <path d="M -620 0 L -520 -22 L -520 -10 L -430 -10 L -430 10 L -520 10 L -520 22 Z"
            fill="url(#brandGradSoft)" opacity="0.85"/>
      <path d="M 620 0 L 520 -22 L 520 -10 L 430 -10 L 430 10 L 520 10 L 520 22 Z"
            fill="url(#brandGradSoft)" opacity="0.85"/>

      <!-- Segmented line -->
      <g stroke="#3a3f58" stroke-width="1.5">
        <line x1="-430" y1="0" x2="430" y2="0"/>
        <!-- ticks -->
        <g>
          <line x1="-400" y1="-6" x2="-400" y2="6"/>
          <line x1="-340" y1="-6" x2="-340" y2="6"/>
          <line x1="-280" y1="-6" x2="-280" y2="6"/>
          <line x1="-220" y1="-6" x2="-220" y2="6"/>
          <line x1="-160" y1="-6" x2="-160" y2="6"/>
          <line x1="-100" y1="-6" x2="-100" y2="6"/>
          <line x1="100" y1="-6" x2="100" y2="6"/>
          <line x1="160" y1="-6" x2="160" y2="6"/>
          <line x1="220" y1="-6" x2="220" y2="6"/>
          <line x1="280" y1="-6" x2="280" y2="6"/>
          <line x1="340" y1="-6" x2="340" y2="6"/>
          <line x1="400" y1="-6" x2="400" y2="6"/>
        </g>
      </g>

      <!-- Labels -->
      <text x="-560" y="40" font-size="24" font-weight="700" fill="url(#brandGrad)" text-anchor="middle">Passato</text>
      <text x="560" y="40" font-size="24" font-weight="700" fill="url(#brandGrad)" text-anchor="middle">Futuro</text>

      <!-- Micro captions -->
      <text x="-260" y="-14" font-size="13" font-style="italic" fill="#6b6e7c" text-anchor="middle">Anno per anno accumuli informazioni, esperienze e credenze che diventano abitudini</text>
      <text x="260"  y="-14" font-size="13" font-style="italic" fill="#6b6e7c" text-anchor="middle">Il tuo corpo diventa una macchina programmata automatica</text>

      <!-- ADESSO disc -->
      <circle cx="0" cy="0" r="42" fill="url(#adessoGlow)" filter="url(#softShadow)"/>
      <text x="0" y="6" font-size="17" font-weight="700" fill="#ffffff" text-anchor="middle" letter-spacing="1.5">ADESSO</text>

      <!-- Present arc -->
      <path d="M -560 8 Q 0 130 560 8" fill="none" stroke="url(#brandGradSoft)" stroke-width="2" stroke-dasharray="4 6"/>
      <text x="0" y="90" font-size="22" font-weight="700" font-style="italic" fill="url(#brandGrad)" text-anchor="middle">Momento presente</text>
      <text x="0" y="118" font-size="13" fill="#3a3f58" text-anchor="middle">Unico momento dove puoi: creare il tuo destino · ascoltare le tue sensazioni · influenzare pensieri ed azioni di conseguenza</text>
    </g>
  </g>

  <!-- ============ BODY COPY ============ -->
  <g font-size="17" fill="#2b2e3c" text-anchor="middle">
    <text x="960" y="928" font-weight="700">Un'abitudine è una serie di emozioni, comportamenti e pensieri inconsci e automatici che si sviluppa attraverso la ripetizione.</text>
    <text x="960" y="958">È una cosa ripetuta talmente tante volte che il tuo corpo viene programmato a diventare la mente.</text>
    <text x="960" y="982">Con il tempo, il corpo ti trascina in un futuro prevedibile basato su ciò che hai fatto in passato.</text>
    <text x="960" y="1006">Di conseguenza, se non sei nel momento presente, probabilmente sei in un programma automatico.</text>
    <text x="960" y="1030">E stai disperdendo la tua energia interna per problemi e pensieri che esistono soltanto nella tua mente.</text>
    <text x="960" y="1056" font-style="italic" fill="#6b6e7c">E se un giorno esisteranno nella realtà è perché li hai manifestati tu.</text>
  </g>

  <!-- Attribution -->
  <text x="1860" y="40" font-size="16" font-style="italic" fill="#6b6e7c" text-anchor="end">
    Estratto dai libri di: <tspan font-weight="700" fill="#2d2de0">Joe Dispenza</tspan>
  </text>
</svg>
