<svg xmlns="http://www.w3.org/2000/svg" viewBox="0 0 400 500" fill="none" stroke="currentColor" stroke-width="2" stroke-linecap="round" stroke-linejoin="round">
  <!-- asta centrale -->
  <line x1="200" y1="30" x2="200" y2="470"/>
  <!-- sfera superiore -->
  <circle cx="200" cy="40" r="18" fill="currentColor" opacity="0.15"/>
  <circle cx="200" cy="40" r="18"/>
  <!-- ali -->
  <path d="M200 90 C 150 90 90 100 30 140 C 70 130 110 130 150 140 C 90 150 50 180 30 220 C 80 190 140 180 190 190"/>
  <path d="M200 90 C 250 90 310 100 370 140 C 330 130 290 130 250 140 C 310 150 350 180 370 220 C 320 190 260 180 210 190"/>
  <!-- serpenti intrecciati -->
  <path d="M180 180 C 140 220 260 260 220 300 C 180 340 260 380 200 430"/>
  <path d="M220 180 C 260 220 140 260 180 300 C 220 340 140 380 200 430"/>
  <!-- teste serpenti -->
  <path d="M170 170 Q 175 160 185 168 L 180 180 Z" fill="currentColor"/>
  <path d="M230 170 Q 225 160 215 168 L 220 180 Z" fill="currentColor"/>
  <!-- punta inferiore -->
  <path d="M188 460 L 200 485 L 212 460"/>
</svg>
