<svg xmlns="http://www.w3.org/2000/svg" viewBox="0 0 800 500" fill="none" stroke="currentColor" stroke-width="1.2">
  <!-- Fibonacci rectangles + golden spiral -->
  <rect x="305" y="190" width="120" height="120"/>
  <rect x="425" y="190" width="120" height="120"/>
  <rect x="305" y="0" width="240" height="190"/>
  <rect x="545" y="0" width="240" height="310"/>
  <rect x="305" y="310" width="480" height="190"/>
  <rect x="0" y="0" width="305" height="500"/>
  <path d="M 305 310 A 120 120 0 0 1 425 190
           M 425 190 A 190 190 0 0 1 545 0
           M 545 0 A 240 240 0 0 1 785 240
           M 785 240 A 310 310 0 0 1 475 500
           M 475 500 A 475 475 0 0 1 0 25"
        stroke-width="1.8"/>
  <!-- mini inner squares -->
  <rect x="350" y="265" width="45" height="45"/>
  <rect x="395" y="265" width="25" height="45"/>
</svg>
